<svg xmlns="http://www.w3.org/2000/svg" version="1.1" xmlns:xlink="http://www.w3.org/1999/xlink" xmlns:svgjs="http://svgjs.dev/svgjs" width="1500" height="935" viewBox="0 0 1500 935"><g transform="matrix(1,0,0,1,-0.9090909090909918,0.3785425101214628)"><svg viewBox="0 0 396 247" data-background-color="#e9efe7" preserveAspectRatio="xMidYMid meet" height="935" width="1500" xmlns="http://www.w3.org/2000/svg" xmlns:xlink="http://www.w3.org/1999/xlink"><g id="tight-bounds" transform="matrix(1,0,0,1,0.2400000000000091,-0.09999999999999432)"><svg viewBox="0 0 395.52 247.2" height="247.2" width="395.52"><g><svg></svg></g><g><svg viewBox="0 0 395.52 247.2" height="247.2" width="395.52"><g><path d="M55.039 247.2l26.403-45.732 0.84 0-25.961 44.965h282.878l-25.961-44.965 0.84 0 26.403 45.732zM197.76 0l26.403 45.732-0.839 0-25.564-44.278-25.564 44.278-0.839 0z" fill="#2a2c35" fill-rule="nonzero" stroke="none" stroke-width="1" stroke-linecap="butt" stroke-linejoin="miter" stroke-miterlimit="10" stroke-dasharray="" stroke-dashoffset="0" font-family="none" font-weight="none" font-size="none" text-anchor="none" style="mix-blend-mode: normal" data-fill-palette-color="tertiary"></path></g><g transform="matrix(1,0,0,1,67.4912102003604,67.97999999999999)"><svg viewBox="0 0 260.5375795992792 111.24" height="111.24" width="260.5375795992792"><g><svg viewBox="0 0 395.52 168.87254755214485" height="111.24" width="260.5375795992792"><g transform="matrix(1,0,0,1,0,110.46632672238016)"><svg viewBox="0 0 395.52 58.40622082976468" height="58.40622082976468" width="395.52"><g id="textblocktransform"><svg viewBox="0 0 395.52 58.40622082976468" height="58.40622082976468" width="395.52" id="textblock"><g><svg viewBox="0 0 395.52 46.67311767685315" height="46.67311767685315" width="395.52"><g transform="matrix(1,0,0,1,0,0)"><svg width="395.52" viewBox="1.4742499999999996 -36.97212 412.8083367725293 48.713229999999996" height="46.67311767685315" data-palette-color="#2a2c35"><path d="M6.328-15.258l3.234 26.493-3.911 0.477-4.177-34.216 4.298-0.524 16.226 27.285 9.146-30.382 4.249-0.519 4.176 34.216-3.911 0.478-3.234-26.494-8.4 27.914-2.789 0.34zM65.951 4.975l-3.384 0.336-0.726-4.38c-0.534 1.567-1.43 2.835-2.687 3.804-1.258 0.962-2.915 1.546-4.972 1.75v0c-1.765 0.175-3.298 0.049-4.6-0.378-1.296-0.434-2.33-1.132-3.102-2.093-0.772-0.962-1.228-2.146-1.367-3.553v0c-0.204-2.057 0.397-3.825 1.805-5.304 1.401-1.472 3.544-2.499 6.427-3.08v0l7.46-1.585-0.195-1.96c-0.136-1.373-0.753-2.424-1.85-3.153-1.091-0.736-2.503-1.018-4.235-0.845v0c-1.698 0.169-3.073 0.7-4.122 1.595-1.05 0.895-1.714 2.1-1.993 3.614v0l-3.45-0.843c0.436-2.221 1.47-4.022 3.101-5.403 1.624-1.387 3.693-2.206 6.208-2.455v0c2.912-0.289 5.252 0.229 7.018 1.554 1.76 1.326 2.766 3.266 3.02 5.82v0zM61.194-5.587l-0.078-0.786-7.505 1.639c-1.62 0.355-2.819 0.926-3.598 1.714-0.779 0.788-1.112 1.752-0.999 2.893v0c0.114 1.148 0.623 2.022 1.526 2.622 0.904 0.607 2.139 0.833 3.705 0.677v0c1.798-0.178 3.231-0.686 4.301-1.522 1.07-0.83 1.816-1.885 2.238-3.167 0.416-1.274 0.553-2.631 0.41-4.07zM72.912 4.392l-2.917-35.34 3.678-0.303 1.167 14.142c0.693-1.248 1.684-2.246 2.974-2.995 1.283-0.748 2.761-1.191 4.435-1.329v0c1.794-0.148 3.429 0.128 4.905 0.829 1.477 0.708 2.683 1.829 3.619 3.364 0.929 1.535 1.493 3.499 1.691 5.89v0l1.158 14.033-3.927 0.324-1.122-13.594c-0.211-2.551-0.91-4.46-2.098-5.727-1.195-1.273-2.823-1.824-4.883-1.654v0c-2.126 0.176-3.728 1.034-4.804 2.574-1.077 1.534-1.503 3.676-1.276 6.427v0l1.078 13.056zM110.863 1.923v0c-2.289 0.147-4.363-0.278-6.224-1.275-1.854-0.997-3.352-2.431-4.494-4.302-1.135-1.865-1.782-4.044-1.942-6.539v0c-0.153-2.388 0.216-4.55 1.108-6.484 0.898-1.935 2.198-3.491 3.9-4.669 1.702-1.178 3.68-1.839 5.935-1.983v0c2.229-0.143 4.253 0.222 6.072 1.094 1.813 0.873 3.267 2.146 4.363 3.819 1.096 1.673 1.682 3.627 1.758 5.86v0c0.023 0.359 0.03 0.736 0.023 1.131-0.008 0.395-0.014 0.823-0.018 1.284v0l-19.022 1.217c0.165 1.533 0.631 2.869 1.399 4.009 0.761 1.134 1.728 2 2.902 2.6 1.174 0.6 2.48 0.853 3.917 0.761v0c1.903-0.122 3.493-0.584 4.771-1.387 1.284-0.81 2.179-1.906 2.686-3.288v0l3.275 1.072c-0.852 2.132-2.178 3.807-3.977 5.025-1.793 1.21-3.937 1.895-6.432 2.055zM102.168-12.12l15.089-0.966c-0.057-1.413-0.439-2.637-1.147-3.674-0.708-1.044-1.654-1.838-2.838-2.384-1.191-0.552-2.538-0.779-4.042-0.683v0c-1.311 0.084-2.488 0.473-3.533 1.168-1.038 0.688-1.875 1.603-2.509 2.746-0.635 1.143-0.975 2.407-1.02 3.793zM126.224-5.688l3.48-1.348c0.247 0.969 0.645 1.761 1.194 2.376 0.557 0.614 1.262 1.068 2.118 1.36 0.848 0.287 1.831 0.403 2.95 0.35v0c1.738-0.083 3.04-0.482 3.907-1.198 0.873-0.716 1.286-1.583 1.237-2.602v0c-0.041-0.852-0.347-1.529-0.918-2.029-0.564-0.494-1.297-0.892-2.199-1.196-0.902-0.304-1.899-0.56-2.99-0.768v0c-0.862-0.159-1.792-0.355-2.792-0.588-0.999-0.226-1.952-0.564-2.861-1.014-0.909-0.45-1.659-1.055-2.249-1.815-0.597-0.759-0.926-1.781-0.988-3.066v0c-0.067-1.405 0.26-2.659 0.982-3.761 0.715-1.102 1.741-1.982 3.077-2.64 1.33-0.658 2.881-1.029 4.652-1.114v0c2.031-0.097 3.863 0.259 5.498 1.069 1.634 0.81 2.805 2.135 3.513 3.977v0l-3.379 1.343c-0.274-0.841-0.725-1.477-1.353-1.908-0.628-0.431-1.315-0.708-2.062-0.832-0.747-0.131-1.48-0.18-2.199-0.145v0c-1.472 0.07-2.647 0.413-3.525 1.029-0.872 0.616-1.28 1.499-1.225 2.651v0c0.03 0.619 0.201 1.128 0.513 1.528 0.312 0.392 0.738 0.709 1.277 0.95 0.538 0.235 1.172 0.425 1.9 0.57 0.734 0.145 1.533 0.314 2.396 0.506v0c0.956 0.181 1.936 0.421 2.938 0.721 1.002 0.299 1.942 0.698 2.821 1.196 0.878 0.499 1.607 1.155 2.186 1.968 0.579 0.807 0.898 1.833 0.958 3.078v0c0.069 1.445-0.264 2.719-0.999 3.822-0.735 1.103-1.784 1.984-3.147 2.643-1.364 0.653-2.965 1.023-4.803 1.111v0c-2.524 0.121-4.642-0.342-6.353-1.389-1.712-1.053-2.897-2.665-3.555-4.835zM151.224-0.436l-1.148-35.441 3.688-0.12 0.459 14.183c0.755-1.212 1.794-2.159 3.12-2.842 1.319-0.683 2.817-1.052 4.497-1.107v0c1.799-0.058 3.418 0.3 4.857 1.074 1.439 0.78 2.588 1.961 3.446 3.54 0.852 1.58 1.316 3.569 1.394 5.968v0l0.456 14.073-3.938 0.127-0.442-13.633c-0.083-2.559-0.686-4.5-1.809-5.824-1.13-1.331-2.728-1.963-4.794-1.896v0c-2.132 0.069-3.775 0.846-4.927 2.331-1.153 1.478-1.684 3.596-1.595 6.355v0l0.424 13.093zM211.494-21.146v0l-0.39 0.052-0.08-15.86 3.69-0.018 0.179 35.459-3.4 0.018-0.273-4.579c-0.746 1.384-1.864 2.556-3.352 3.517-1.489 0.954-3.333 1.437-5.533 1.448v0c-2.267 0.011-4.246-0.495-5.938-1.52-1.699-1.025-3.019-2.485-3.962-4.38-0.943-1.902-1.421-4.133-1.434-6.693v0c-0.013-2.56 0.443-4.786 1.367-6.677 0.924-1.891 2.23-3.368 3.917-4.43 1.681-1.062 3.655-1.598 5.922-1.61v0c2.333-0.012 4.273 0.488 5.818 1.501 1.552 1.012 2.708 2.27 3.469 3.772zM194.981-13.722v0c0.014 2.82 0.749 5.056 2.204 6.709 1.455 1.653 3.429 2.473 5.923 2.46v0c1.54-0.008 2.918-0.378 4.134-1.111 1.21-0.726 2.164-1.781 2.864-3.165 0.7-1.384 1.045-3.042 1.035-4.975v0c-0.01-1.94-0.371-3.588-1.085-4.944-0.714-1.356-1.679-2.402-2.896-3.136-1.224-0.734-2.606-1.097-4.145-1.089v0c-2.46 0.012-4.416 0.852-5.868 2.52-1.458 1.661-2.18 3.904-2.166 6.731zM241.014-1.189l-3.4-0.043-0.234-4.433c-0.706 1.498-1.737 2.658-3.094 3.481-1.357 0.816-3.069 1.211-5.135 1.185v0c-1.773-0.023-3.283-0.318-4.53-0.888-1.239-0.576-2.189-1.385-2.849-2.426-0.66-1.042-0.981-2.269-0.963-3.683v0c0.026-2.067 0.821-3.757 2.384-5.07 1.557-1.307 3.8-2.089 6.731-2.345v0l7.59-0.743 0.025-1.97c0.018-1.38-0.478-2.493-1.488-3.339-1.003-0.853-2.374-1.29-4.114-1.313v0c-1.707-0.022-3.131 0.354-4.274 1.126-1.143 0.772-1.938 1.896-2.383 3.37v0l-3.335-1.222c0.681-2.158 1.909-3.833 3.684-5.024 1.769-1.198 3.916-1.78 6.443-1.748v0c2.926 0.037 5.193 0.813 6.801 2.326 1.601 1.514 2.385 3.554 2.352 6.121v0zM237.464-12.215l0.01-0.789-7.641 0.793c-1.649 0.172-2.905 0.606-3.767 1.302-0.862 0.696-1.301 1.617-1.315 2.763v0c-0.015 1.153 0.394 2.079 1.225 2.776 0.831 0.704 2.033 1.066 3.606 1.086v0c1.807 0.023 3.288-0.322 4.444-1.034 1.156-0.705 2.015-1.671 2.577-2.897 0.556-1.22 0.842-2.553 0.861-4zM248.798-0.991l0.6-24.612 3.639 0.088-0.6 24.613zM251.387-30.486v0c-0.753-0.018-1.37-0.277-1.851-0.776-0.481-0.505-0.713-1.121-0.695-1.847v0c0.018-0.753 0.28-1.37 0.785-1.852 0.505-0.481 1.134-0.713 1.887-0.694v0c0.693 0.017 1.287 0.278 1.782 0.784 0.494 0.506 0.733 1.135 0.714 1.888v0c-0.018 0.726-0.286 1.33-0.804 1.811-0.518 0.474-1.124 0.703-1.818 0.686zM260.629-0.633l0.856-24.606 3.398 0.119 0.075 3.594c0.684-0.863 1.503-1.589 2.457-2.176 0.961-0.594 2.012-0.994 3.154-1.201 1.141-0.207 2.347-0.172 3.619 0.106v0l-0.129 3.688c-1.37-0.308-2.609-0.351-3.717-0.129-1.109 0.228-2.069 0.689-2.88 1.38-0.811 0.692-1.449 1.581-1.914 2.666-0.471 1.084-0.732 2.349-0.782 3.795v0l-0.449 12.892zM287.446-4.219l8.612-19.489 3.835 0.19-15.773 33.733-3.536-0.175 4.678-9.971-8.731-24.741 4.026 0.199zM319.952-22.222l0.206-2.903c0.127-1.802 0.531-3.304 1.211-4.506 0.673-1.202 1.678-2.043 3.015-2.523 1.331-0.481 3.071-0.565 5.221-0.252v0l-0.233 3.291c-1.95-0.298-3.33-0.075-4.137 0.67-0.815 0.751-1.28 1.945-1.396 3.581v0l-0.206 2.902 5.407 0.383-0.244 3.441-5.406-0.382-1.494 21.117-3.681-0.26 1.494-21.118-3.441-0.243 0.243-3.442zM351.39 4.983l-3.388-0.282 0.079-4.439c-0.809 1.444-1.92 2.529-3.332 3.254-1.411 0.719-3.147 0.992-5.206 0.821v0c-1.767-0.147-3.252-0.549-4.456-1.204-1.196-0.662-2.086-1.535-2.671-2.621-0.585-1.086-0.819-2.333-0.702-3.741v0c0.172-2.06 1.083-3.689 2.736-4.89 1.645-1.194 3.938-1.816 6.878-1.865v0l7.624-0.208 0.163-1.963c0.115-1.375-0.302-2.52-1.249-3.436-0.94-0.921-2.277-1.454-4.011-1.598v0c-1.701-0.142-3.149 0.132-4.343 0.822-1.195 0.69-2.066 1.754-2.614 3.194v0l-3.241-1.454c0.831-2.105 2.174-3.689 4.029-4.752 1.849-1.07 4.032-1.5 6.55-1.291v0c2.917 0.243 5.123 1.176 6.62 2.8 1.49 1.623 2.129 3.713 1.916 6.271v0zM348.625-6.265l0.065-0.788-7.677 0.254c-1.657 0.056-2.94 0.401-3.849 1.033-0.909 0.633-1.411 1.521-1.507 2.665v0c-0.096 1.149 0.246 2.101 1.027 2.855 0.78 0.761 1.953 1.206 3.521 1.337v0c1.8 0.15 3.302-0.089 4.505-0.719 1.202-0.622 2.127-1.525 2.774-2.709 0.64-1.178 1.02-2.487 1.141-3.928zM358.374 5.664l2.389-24.503 3.384 0.329-0.149 3.593c0.736-0.819 1.599-1.492 2.588-2.018 0.996-0.532 2.071-0.867 3.223-1.003 1.152-0.136 2.354-0.025 3.604 0.332v0l-0.358 3.672c-1.348-0.393-2.582-0.513-3.702-0.361-1.121 0.159-2.107 0.558-2.96 1.199-0.853 0.64-1.545 1.487-2.077 2.54-0.538 1.053-0.877 2.299-1.017 3.739v0l-1.252 12.839zM375.777 7.459l2.851-24.455 3.377 0.394-0.162 3.545c0.852-1.089 1.931-1.913 3.238-2.471 1.3-0.56 2.798-0.741 4.494-0.544v0c1.728 0.201 3.252 0.802 4.572 1.802 1.326 1 2.285 2.361 2.876 4.08v0c0.942-1.575 2.229-2.683 3.862-3.325 1.625-0.636 3.367-0.846 5.228-0.629v0c1.821 0.212 3.387 0.801 4.697 1.766 1.31 0.965 2.264 2.281 2.862 3.948 0.597 1.674 0.756 3.702 0.478 6.087v0l-1.642 14.084-3.665-0.427 1.591-13.648c0.296-2.543-0.025-4.537-0.964-5.982-0.938-1.452-2.417-2.295-4.437-2.53v0c-2.053-0.239-3.768 0.279-5.144 1.554-1.371 1.283-2.218 3.309-2.541 6.077v0l-1.517 13.012-3.665-0.427 1.591-13.648c0.296-2.543-0.002-4.534-0.894-5.974-0.885-1.446-2.341-2.286-4.368-2.522v0c-2.053-0.239-3.741 0.282-5.065 1.564-1.325 1.289-2.149 3.317-2.471 6.084v0l-1.517 13.012z" opacity="1" transform="matrix(1,0,0,1,0,0)" fill="#2a2c35" class="wordmark-text-0" data-fill-palette-color="primary" id="text-0"></path></svg></g></svg></g><g transform="matrix(1,0,0,1,118.31980799999998,51.08579358061792)"><svg viewBox="0 0 158.88038400000002 7.320427249146761" height="7.320427249146761" width="158.88038400000002"><g transform="matrix(1,0,0,1,0,0)"><svg width="158.88038400000002" viewBox="4.65 -32.05 703.12 32.4" height="7.320427249146761" data-palette-color="#2a2c35"><path d="M14.3-28.7L8.7-28.6 8.6-17.45 14-17.35 19.2-17.5 19.5-17.1 19.15-14.05 13.6-14.2 8.55-14.15 8.5-10 8.7 0 4.65 0 4.9-9.65 4.65-32.05 21.7-32.05 22-31.65 21.65-28.45 14.3-28.7ZM37.65-10.05Q40.7-5.4 44.4-0.9L44.4-0.9 44.35-0.4Q42.25 0.25 40.9 0.35L40.9 0.35 40.25-0.05Q36.45-5.8 34.5-9.1L34.5-9.1 29.8-9.05 29.8-7.8 29.9 0 26.2 0 26.35-7.5 26.2-24.9 34.7-24.95Q38.65-24.95 40.77-23.1 42.9-21.25 42.9-17.75L42.9-17.75Q42.9-15.2 41.52-13.2 40.15-11.2 37.65-10.05L37.65-10.05ZM29.9-21.9L29.85-12.15 34.55-12Q39-13.25 39-17.45L39-17.45Q39-19.65 37.7-20.75 36.4-21.85 33.75-21.95L33.75-21.95 29.9-21.9ZM59.55-3L66.2-3.2 66.5-2.9 66.15 0 51 0 51.15-7.5 51-24.9 66.25-24.9 66.5-24.6 66.2-21.7 59.9-21.9 54.7-21.85 54.65-14.3 59.6-14.25 63.95-14.4 64.2-14.05 63.9-11.1 59.3-11.25 54.65-11.2 54.6-7.8 54.65-3.05 59.55-3ZM80.09-25.15Q83.14-25.15 86.19-23.95L86.19-23.95 85.54-20.25 84.94-20.1Q83.54-21.2 82.29-21.73 81.04-22.25 79.69-22.25L79.69-22.25Q77.54-22.25 76.29-21.13 75.04-20 75.04-18.55L75.04-18.55Q75.04-17.1 76.27-16.2 77.49-15.3 80.04-14.2L80.04-14.2Q82.29-13.2 83.62-12.4 84.94-11.6 85.92-10.28 86.89-8.95 86.89-7.05L86.89-7.05Q86.89-5.1 85.84-3.43 84.79-1.75 82.77-0.73 80.74 0.3 77.94 0.3L77.94 0.3Q76.19 0.3 74.27-0.13 72.34-0.55 70.69-1.4L70.69-1.4 71.14-5.35 71.64-5.55Q73.04-4.15 74.92-3.38 76.79-2.6 78.39-2.6L78.39-2.6Q80.49-2.6 81.84-3.73 83.19-4.85 83.19-6.45L83.19-6.45Q83.19-7.95 81.97-8.85 80.74-9.75 78.14-10.95L78.14-10.95Q75.99-11.9 74.62-12.7 73.24-13.5 72.29-14.83 71.34-16.15 71.34-18.05L71.34-18.05Q71.34-20.05 72.42-21.65 73.49-23.25 75.47-24.2 77.44-25.15 80.09-25.15L80.09-25.15ZM114.84-24.9L114.69-7.8 114.79 0 111.09 0 111.24-7.5 111.19-10.9 97.64-10.85 97.59-7.8 97.69 0 93.99 0 94.14-7.5 93.99-24.9 97.74-24.9 97.64-14.2 104.39-14.15 111.19-14.2 111.09-24.9 114.84-24.9ZM140.04-21.9L135.49-21.85 135.44-13.65 139.74-13.6 144.14-13.75 144.39-13.4 144.14-10.55 139.39-10.6 135.39-10.55 135.39-7.8 135.49 0 131.79 0 131.89-7.5 131.79-24.9 146.29-24.9 146.49-24.6 146.19-21.7 140.04-21.9ZM162.83-10.05Q165.88-5.4 169.58-0.9L169.58-0.9 169.53-0.4Q167.43 0.25 166.08 0.35L166.08 0.35 165.43-0.05Q161.63-5.8 159.68-9.1L159.68-9.1 154.98-9.05 154.98-7.8 155.08 0 151.38 0 151.53-7.5 151.38-24.9 159.88-24.95Q163.83-24.95 165.96-23.1 168.08-21.25 168.08-17.75L168.08-17.75Q168.08-15.2 166.71-13.2 165.33-11.2 162.83-10.05L162.83-10.05ZM155.08-21.9L155.03-12.15 159.73-12Q164.18-13.25 164.18-17.45L164.18-17.45Q164.18-19.65 162.88-20.75 161.58-21.85 158.93-21.95L158.93-21.95 155.08-21.9ZM185.48-25.2Q190.93-25.2 193.86-22 196.78-18.8 196.78-12.95L196.78-12.95Q196.78-6.6 193.66-3.13 190.53 0.35 184.73 0.35L184.73 0.35Q179.33 0.35 176.38-2.93 173.43-6.2 173.43-12.25L173.43-12.25Q173.43-18.45 176.58-21.83 179.73-25.2 185.48-25.2L185.48-25.2ZM185.13-22.05Q181.18-22.05 179.26-19.8 177.33-17.55 177.33-12.7L177.33-12.7Q177.33-7.5 179.23-5.15 181.13-2.8 185.03-2.8L185.03-2.8Q189.03-2.8 190.98-5.1 192.93-7.4 192.93-12.3L192.93-12.3Q192.93-17.35 191.01-19.7 189.08-22.05 185.13-22.05L185.13-22.05ZM227.48-24.9L230.03 0 226.68 0 226.13-7.6 224.78-19.1 224.48-19.1 217.33-2.8 214.38-2.8 207.63-19.1 207.33-19.1 206.03-7.9 205.33 0 202.13 0 204.88-24.9 209.23-24.9 210.48-21.15 215.93-7.75 216.23-7.75 221.93-21.35 223.23-24.9 227.48-24.9ZM261.47-24.9L261.67-24.6 261.42-21.45 256.77-21.8 254.27-21.8 254.12-7.8 254.27 0 250.52 0 250.67-7.5 250.57-21.8 248.07-21.8 243.32-21.45 243.02-21.8 243.32-24.9 261.47-24.9ZM288.62-24.9L288.47-7.8 288.57 0 284.87 0 285.02-7.5 284.97-10.9 271.42-10.85 271.37-7.8 271.47 0 267.77 0 267.92-7.5 267.77-24.9 271.52-24.9 271.42-14.2 278.17-14.15 284.97-14.2 284.87-24.9 288.62-24.9ZM306.12-3L312.77-3.2 313.07-2.9 312.72 0 297.57 0 297.72-7.5 297.57-24.9 312.82-24.9 313.07-24.6 312.77-21.7 306.47-21.9 301.27-21.85 301.22-14.3 306.17-14.25 310.52-14.4 310.77-14.05 310.47-11.1 305.87-11.25 301.22-11.2 301.17-7.8 301.22-3.05 306.12-3ZM335.56-21.9L331.01-21.85 330.96-13.65 335.26-13.6 339.66-13.75 339.91-13.4 339.66-10.55 334.91-10.6 330.91-10.55 330.91-7.8 331.01 0 327.31 0 327.41-7.5 327.31-24.9 341.81-24.9 342.01-24.6 341.71-21.7 335.56-21.9ZM356.31-24.9L365.06 0 361.31 0 360.71-2.7 359.41-6.4 353.46-6.45 348.16-6.4 346.81-2.9 346.11 0 342.41 0 352.01-24.9 356.31-24.9ZM353.76-9.4L358.36-9.45 354.21-21.25 353.91-21.25 349.36-9.45 353.76-9.4ZM382.71-10.05Q385.76-5.4 389.46-0.9L389.46-0.9 389.41-0.4Q387.31 0.25 385.96 0.35L385.96 0.35 385.31-0.05Q381.51-5.8 379.56-9.1L379.56-9.1 374.86-9.05 374.86-7.8 374.96 0 371.26 0 371.41-7.5 371.26-24.9 379.76-24.95Q383.71-24.95 385.83-23.1 387.96-21.25 387.96-17.75L387.96-17.75Q387.96-15.2 386.58-13.2 385.21-11.2 382.71-10.05L382.71-10.05ZM374.96-21.9L374.91-12.15 379.61-12Q384.06-13.25 384.06-17.45L384.06-17.45Q384.06-19.65 382.76-20.75 381.46-21.85 378.81-21.95L378.81-21.95 374.96-21.9ZM420.01-24.9L422.56 0 419.21 0 418.66-7.6 417.31-19.1 417.01-19.1 409.86-2.8 406.91-2.8 400.16-19.1 399.86-19.1 398.56-7.9 397.86 0 394.66 0 397.41-24.9 401.76-24.9 403.01-21.15 408.46-7.75 408.76-7.75 414.46-21.35 415.76-24.9 420.01-24.9ZM454-24.9L454.2-24.6 453.95-21.45 449.3-21.8 446.8-21.8 446.65-7.8 446.8 0 443.05 0 443.2-7.5 443.1-21.8 440.6-21.8 435.85-21.45 435.55-21.8 435.85-24.9 454-24.9ZM468.1-25.2Q473.55-25.2 476.47-22 479.4-18.8 479.4-12.95L479.4-12.95Q479.4-6.6 476.27-3.13 473.15 0.35 467.35 0.35L467.35 0.35Q461.95 0.35 459-2.93 456.05-6.2 456.05-12.25L456.05-12.25Q456.05-18.45 459.2-21.83 462.35-25.2 468.1-25.2L468.1-25.2ZM467.75-22.05Q463.8-22.05 461.87-19.8 459.95-17.55 459.95-12.7L459.95-12.7Q459.95-7.5 461.85-5.15 463.75-2.8 467.65-2.8L467.65-2.8Q471.65-2.8 473.6-5.1 475.55-7.4 475.55-12.3L475.55-12.3Q475.55-17.35 473.62-19.7 471.7-22.05 467.75-22.05L467.75-22.05ZM503.09-8.7L503.04-7.15 503.19 0 499.44 0 499.64-7.15 499.59-8.7 491.14-24.9 495.24-24.9 495.74-23.45 501.34-12.75 501.59-12.75 507.69-23.3 508.34-24.9 512.34-24.9 503.09-8.7ZM526.14-25.2Q531.59-25.2 534.52-22 537.44-18.8 537.44-12.95L537.44-12.95Q537.44-6.6 534.32-3.13 531.19 0.35 525.39 0.35L525.39 0.35Q519.99 0.35 517.04-2.93 514.09-6.2 514.09-12.25L514.09-12.25Q514.09-18.45 517.24-21.83 520.39-25.2 526.14-25.2L526.14-25.2ZM525.79-22.05Q521.84-22.05 519.92-19.8 517.99-17.55 517.99-12.7L517.99-12.7Q517.99-7.5 519.89-5.15 521.79-2.8 525.69-2.8L525.69-2.8Q529.69-2.8 531.64-5.1 533.59-7.4 533.59-12.3L533.59-12.3Q533.59-17.35 531.67-19.7 529.74-22.05 525.79-22.05L525.79-22.05ZM563.49-24.9L563.34-12.25 563.34-8.65Q563.39-4.4 560.76-2.05 558.14 0.3 553.24 0.3L553.24 0.3Q548.39 0.3 545.84-2.02 543.29-4.35 543.39-8.65L543.39-8.65 543.44-12.45 543.39-24.9 547.14-24.9 546.94-9.25Q546.89-6.1 548.51-4.5 550.14-2.9 553.39-2.9L553.39-2.9Q556.59-2.9 558.24-4.5 559.89-6.1 559.84-9.25L559.84-9.25 559.69-24.9 563.49-24.9ZM583.09-10.05Q586.14-5.4 589.84-0.9L589.84-0.9 589.79-0.4Q587.69 0.25 586.34 0.35L586.34 0.35 585.69-0.05Q581.89-5.8 579.94-9.1L579.94-9.1 575.24-9.05 575.24-7.8 575.34 0 571.64 0 571.79-7.5 571.64-24.9 580.14-24.95Q584.09-24.95 586.21-23.1 588.34-21.25 588.34-17.75L588.34-17.75Q588.34-15.2 586.96-13.2 585.59-11.2 583.09-10.05L583.09-10.05ZM575.34-21.9L575.29-12.15 579.99-12Q584.44-13.25 584.44-17.45L584.44-17.45Q584.44-19.65 583.14-20.75 581.84-21.85 579.19-21.95L579.19-21.95 575.34-21.9ZM620.23-24.9L620.43-24.6 620.18-21.45 615.53-21.8 613.03-21.8 612.88-7.8 613.03 0 609.28 0 609.43-7.5 609.33-21.8 606.83-21.8 602.08-21.45 601.78-21.8 602.08-24.9 620.23-24.9ZM634.43-24.9L643.18 0 639.43 0 638.83-2.7 637.53-6.4 631.58-6.45 626.28-6.4 624.93-2.9 624.23 0 620.53 0 630.13-24.9 634.43-24.9ZM631.88-9.4L636.48-9.45 632.33-21.25 632.03-21.25 627.48-9.45 631.88-9.4ZM661.07-12.95Q666.62-11.85 666.62-7.05L666.62-7.05Q666.62-3.45 663.82-1.65 661.02 0.15 655.62 0.15L655.62 0.15Q652.37 0.15 649.37 0L649.37 0 649.52-7.5 649.37-24.9 657.17-24.95Q660.92-24.95 663-23.38 665.07-21.8 665.07-18.9L665.07-18.9Q665.07-16.75 664.02-15.25 662.97-13.75 661.07-12.95L661.07-12.95ZM661.12-18.45Q661.12-20.3 659.92-21.15 658.72-22 656.07-22L656.07-22 653.02-22 652.97-14.3 657.42-14.15Q659.27-14.55 660.2-15.58 661.12-16.6 661.12-18.45L661.12-18.45ZM656.07-2.7Q659.32-2.7 661.05-3.83 662.77-4.95 662.77-7.15L662.77-7.15Q662.77-8.95 661.57-9.95 660.37-10.95 657.92-11.3L657.92-11.3 652.97-11.25 652.92-7.8 653.02-2.85Q654.57-2.7 656.07-2.7L656.07-2.7ZM686.62-3.15L686.82-2.8 686.57 0 673.32 0 673.47-7.5 673.32-24.9 677.07-24.9 676.92-7.8 677.02-3.15 686.62-3.15ZM700.82-3L707.47-3.2 707.77-2.9 707.42 0 692.27 0 692.42-7.5 692.27-24.9 707.52-24.9 707.77-24.6 707.47-21.7 701.17-21.9 695.97-21.85 695.92-14.3 700.87-14.25 705.22-14.4 705.47-14.05 705.17-11.1 700.57-11.25 695.92-11.2 695.87-7.8 695.92-3.05 700.82-3Z" opacity="1" transform="matrix(1,0,0,1,0,0)" fill="#2a2c35" class="slogan-text-1" data-fill-palette-color="secondary" id="text-1"></path></svg></g></svg></g></svg></g></svg></g><g transform="matrix(1,0,0,1,175.6754651738584,0)"><svg viewBox="0 0 44.16906965228313 94.50126530255925" height="94.50126530255925" width="44.16906965228313"><g><svg xmlns="http://www.w3.org/2000/svg" xmlns:xlink="http://www.w3.org/1999/xlink" version="1.1" x="0" y="0" viewBox="28 5 43 92" enable-background="new 0 0 100 100" xml:space="preserve" height="94.50126530255925" width="44.16906965228313" class="icon-icon-0" data-fill-palette-color="accent" id="icon-0"><g fill="#2a2c35" data-fill-palette-color="accent"><path d="M69.155 42.285l-7.656-21.576c-0.874-2.463-1.392-4.116-1.521-4.605C59.78 14.359 58.296 13 56.5 13h-13c-1.78 0-3.253 1.335-3.472 3.057-0.146 0.498-0.702 2.123-1.63 4.523l-8.391 21.674C28.881 45.164 28 49.883 28 53v36c0 4.411 3.589 8 8 8h27c4.411 0 8-3.589 8-8V53C71 49.905 70.189 45.198 69.155 42.285zM35.603 44.42l8.391-21.674c0.65-1.681 1.09-2.878 1.387-3.746h9.201c0.273 0.865 0.674 2.055 1.264 3.715l7.656 21.576C64.3 46.541 65 50.61 65 53v4.77c-0.16 0.144-0.311 0.304-0.441 0.486C63.494 59.746 59.638 64 56 64c-2.386 0-4.604-1.495-6.748-2.94C47.021 59.556 44.715 58 42 58c-2.475 0-5.495 1.273-8 2.617V53C34 50.636 34.749 46.626 35.603 44.42z" fill="#2a2c35" data-fill-palette-color="accent"></path><path d="M43 11h14c1.657 0 3-1.343 3-3s-1.343-3-3-3H43c-1.657 0-3 1.343-3 3S41.343 11 43 11z" fill="#2a2c35" data-fill-palette-color="accent"></path></g></svg></g></svg></g><g></g></svg></g></svg></g></svg></g><defs></defs></svg><rect width="395.52" height="247.2" fill="none" stroke="none" visibility="hidden"></rect></g></svg></g></svg>