<?xml version="1.0" encoding="UTF-8"?>
<!DOCTYPE svg PUBLIC "-//W3C//DTD SVG 1.1//EN" "http://www.w3.org/Graphics/SVG/1.1/DTD/svg11.dtd">
<!-- Creator: CorelDRAW 2017 -->
<svg xmlns="http://www.w3.org/2000/svg" xml:space="preserve" width="8.26772in" height="11.6929in" version="1.1" style="shape-rendering:geometricPrecision; text-rendering:geometricPrecision; image-rendering:optimizeQuality; fill-rule:evenodd; clip-rule:evenodd"
viewBox="0 0 8268 11693"
 xmlns:xlink="http://www.w3.org/1999/xlink">
 <defs>
  <style type="text/css">
   <![CDATA[
    .str0 {stroke:#373435;stroke-width:6.94488}
    .fil0 {fill:none}
    .fil4 {fill:#373435;fill-rule:nonzero}
    .fil2 {fill:#F58634;fill-rule:nonzero}
    .fil1 {fill:#050606;fill-rule:nonzero}
    .fil3 {fill:#231F20;fill-rule:nonzero}
   ]]>
  </style>
 </defs>
 <g id="Layer_x0020_1">
  <metadata id="CorelCorpID_0Corel-Layer"/>
  <g id="_3096519649568">
   <rect class="fil0 str0" x="1285" y="6419" width="5725" height="522"/>
   <path class="fil1" d="M2868 5272l0 732c0,48 -19,95 -53,129 -34,34 -81,53 -129,53l-307 0c-48,0 -95,-19 -129,-53 -34,-34 -53,-81 -53,-129l0 -732c0,-20 11,-52 26,-77 10,-16 22,-31 37,-43 12,-11 23,-21 25,-26 3,-9 5,-22 -6,-26 -11,-4 -16,-12 -15,-37 1,-19 1,-60 2,-81 0,-4 1,-8 4,-11 2,-3 6,-5 9,-6 32,-9 120,-32 254,-32 155,0 207,13 249,25 4,1 7,3 9,6 2,3 4,6 4,10 3,30 8,105 -1,123 0,0 -15,2 -15,8 0,6 -3,15 8,22 23,20 42,43 58,69 14,24 22,50 24,77l0 0z"/>
   <path class="fil1" d="M3655 3649l-272 551 -516 0 0 1001c-2,-6 -5,-11 -8,-16 -16,-27 -37,-51 -60,-72l5 -1 4 -9c8,-16 9,-61 3,-133 -1,-7 -4,-14 -8,-20 -5,-6 -11,-10 -18,-12 -47,-14 -103,-26 -254,-26 -135,0 -227,23 -260,33 -7,2 -14,7 -18,13 -5,6 -7,14 -8,21l-1 33c-1,18 -1,37 -1,48 0,22 2,43 23,53 0,1 0,2 -1,3 -6,7 -13,14 -20,20 -16,14 -30,30 -41,48 -4,6 -8,13 -11,20l0 -1005 -913 0 0 -551 2372 0z"/>
   <polygon class="fil2" points="5771,6202 5085,6202 4175,4277 4166,4277 3256,6202 2994,6202 2994,5296 3792,3649 4549,3649 "/>
   <polygon class="fil1" points="4727,5696 3614,5696 3849,5196 4492,5196 "/>
   <polygon class="fil2" points="5871,6137 5514,5416 6366,3691 7020,3695 "/>
   <path class="fil2" d="M2868 5383c-223,-27 -449,-27 -672,0l0 -106c223,-32 449,-32 672,0l0 106z"/>
   <polygon class="fil2" points="2828,5536 2828,5436 2742,5436 2742,5536 "/>
   <polygon class="fil2" points="2828,5648 2828,5559 2741,5559 2741,5648 "/>
   <path class="fil2" d="M2828 5671l0 227c0,3 -1,7 -4,9 -2,2 -6,4 -9,4l-61 0c-3,0 -7,-1 -9,-4 -2,-2 -4,-6 -4,-9l0 -227 86 0z"/>
   <polygon class="fil3" points="1674,6593 1569,6593 1569,6528 1860,6528 1860,6593 1754,6593 1754,6827 1674,6827 "/>
   <path class="fil3" d="M1893 6528l73 0 0 109 63 0c17,0 34,1 51,4 12,2 24,7 34,14 8,6 15,14 18,24 4,11 6,22 6,34l0 113 -74 0 0 -104c0,-4 0,-7 -1,-11 -1,-3 -3,-7 -6,-9 -5,-4 -14,-6 -28,-6l-63 0 0 130 -73 0 0 -298z"/>
   <path class="fil3" d="M2379 6779l0 48 -86 0c-20,0 -40,-1 -59,-5 -13,-3 -25,-9 -35,-17 -8,-8 -14,-18 -17,-30 -3,-15 -5,-29 -4,-44 0,-14 1,-29 4,-43 2,-12 8,-22 17,-31 10,-9 22,-15 35,-18 39,-8 79,-8 118,0 13,3 25,8 35,17 8,7 15,17 17,28 3,13 5,26 5,40l0 24 -166 0c0,5 1,11 3,16 2,4 5,8 9,10 5,3 10,4 16,5 8,1 16,2 24,1l83 0zm-82 -102c-8,0 -17,0 -25,1 -6,1 -11,2 -16,5 -4,2 -7,6 -9,10 -2,5 -3,10 -3,16l0 2 102 0 0 -2c0,-5 -1,-11 -2,-16 -2,-4 -5,-8 -8,-10 -5,-3 -10,-4 -15,-5 -8,-1 -15,-1 -23,-1l0 0z"/>
   <path class="fil2" d="M2705 6528l87 0 146 298 -81 0 -27 -58 -160 0 -27 58 -83 0 146 -298zm-7 180l102 0 -51 -109 -51 109z"/>
   <path class="fil3" d="M2921 6638l35 0 0 -67 73 0 0 67 64 0 0 49 -64 0 0 69c0,3 0,5 1,8 1,2 3,5 5,6 7,3 14,5 22,4l27 0 0 52 -36 0c-15,0 -29,-1 -43,-3 -10,-2 -20,-5 -29,-11 -7,-5 -13,-12 -16,-20 -3,-10 -5,-20 -5,-30l0 -76 -35 0 0 -49z"/>
   <path class="fil3" d="M3128 6528l73 0 0 109 63 0c17,0 34,1 51,4 12,2 23,7 34,14 8,6 15,14 18,24 4,11 6,23 5,34l0 113 -74 0 0 -104c0,-4 0,-7 -1,-11 -1,-3 -3,-7 -6,-9 -5,-4 -14,-6 -28,-6l-63 0 0 130 -73 0 0 -298z"/>
   <polygon class="fil3" points="3424,6528 3498,6528 3498,6827 3424,6827 "/>
   <path class="fil3" d="M3742 6779l0 48 -86 0c-20,0 -40,-1 -59,-5 -13,-3 -25,-9 -35,-17 -8,-8 -14,-18 -17,-30 -3,-15 -5,-29 -4,-44 0,-14 1,-29 4,-43 2,-12 8,-22 17,-31 10,-9 22,-15 35,-18 39,-8 79,-8 118,0 13,3 25,8 35,17 8,7 15,17 17,28 3,13 5,26 5,40l0 24 -166 0c0,5 1,11 3,16 2,4 5,8 9,10 5,3 10,4 16,5 8,1 16,2 24,1l83 0zm-82 -102c-8,0 -17,0 -25,1 -6,1 -11,2 -16,5 -4,2 -7,6 -9,10 -2,5 -3,10 -3,16l0 2 101 0 0 -2c0,-5 -1,-11 -2,-16 -2,-4 -5,-8 -8,-10 -5,-3 -10,-4 -15,-5 -8,-1 -15,-1 -23,-1l0 0z"/>
   <path class="fil3" d="M3796 6638l35 0 0 -67 73 0 0 67 64 0 0 49 -64 0 0 69c0,3 0,5 1,8 1,2 3,5 5,6 7,3 14,5 22,4l27 0 0 52 -36 0c-15,0 -29,-1 -43,-3 -10,-2 -20,-5 -29,-11 -7,-5 -13,-12 -16,-20 -3,-10 -5,-20 -5,-30l0 -76 -35 0 0 -49z"/>
   <path class="fil3" d="M4193 6779l0 48 -86 0c-20,0 -40,-1 -59,-5 -13,-3 -25,-9 -35,-17 -8,-8 -14,-18 -17,-30 -3,-15 -5,-29 -4,-44 0,-14 1,-29 4,-43 3,-12 8,-22 17,-31 10,-9 22,-15 35,-18 39,-8 79,-8 118,0 13,3 25,8 35,17 8,7 15,17 17,28 3,13 5,26 5,40l0 24 -166 0c0,5 1,11 3,16 2,4 5,8 9,10 5,3 10,4 16,5 8,1 16,1 25,1l83 0zm-83 -102c-8,0 -17,0 -25,1 -6,1 -11,2 -16,5 -4,2 -7,6 -9,10 -2,5 -3,10 -3,16l0 2 102 0 0 -2c0,-5 -1,-11 -2,-16 -2,-4 -5,-8 -8,-10 -5,-3 -10,-4 -15,-5 -8,-1 -15,-1 -23,-1l0 0z"/>
   <path class="fil3" d="M4330 6528l0 83c0,15 -3,26 -9,32 -6,7 -17,10 -32,10l-29 0 0 -29 17 0c1,0 3,0 4,0 1,0 2,-1 3,-2 1,-1 2,-2 2,-3 0,-1 1,-3 0,-4l0 -16 -27 0 0 -71 70 0z"/>
   <path class="fil3" d="M4424 6751c-11,0 -22,-1 -32,-3 -7,-2 -14,-5 -20,-10 -5,-5 -9,-11 -11,-18 -2,-8 -3,-17 -3,-25 0,-8 1,-16 3,-24 2,-7 6,-13 11,-18 6,-5 13,-9 21,-11 11,-3 22,-4 33,-3l138 0 0 45 -121 0c-5,0 -9,1 -13,3 -1,1 -3,3 -3,5 -1,2 -1,4 -1,6 0,2 0,4 1,6 1,2 2,4 3,5 4,3 9,4 13,3l61 0c11,0 22,1 32,3 8,2 15,5 20,11 5,5 9,11 11,18 2,8 3,16 3,25 0,8 -1,17 -3,25 -2,7 -6,13 -11,18 -6,5 -13,9 -21,11 -11,3 -22,4 -33,4l-144 0 0 -46 126 0c5,0 9,-1 13,-3 1,-2 3,-3 3,-5 1,-2 1,-4 1,-6 0,-2 0,-4 -1,-6 -1,-2 -2,-4 -3,-5 -4,-3 -9,-4 -14,-3l-61 0z"/>
   <polygon class="fil2" points="4986,6740 4986,6528 5060,6528 5060,6827 4963,6827 4817,6623 4817,6827 4743,6827 4743,6528 4838,6528 "/>
   <path class="fil3" d="M5355 6827l-134 0c-17,0 -34,-1 -51,-4 -12,-2 -23,-7 -34,-14 -8,-6 -15,-14 -18,-24 -4,-11 -6,-23 -5,-34l0 -113 73 0 0 104c0,4 0,7 1,11 1,3 3,7 6,9 5,4 14,6 28,6l61 0 0 -130 73 0 0 189z"/>
   <path class="fil3" d="M5392 6638l35 0 0 -67 73 0 0 67 64 0 0 49 -64 0 0 69c0,3 0,5 1,8 1,2 3,5 5,6 7,3 14,5 22,4l27 0 0 52 -36 0c-15,0 -29,-1 -43,-3 -10,-2 -20,-5 -29,-11 -7,-5 -13,-12 -16,-20 -3,-10 -5,-20 -5,-30l0 -76 -35 0 0 -49z"/>
   <path class="fil3" d="M5700 6687c-8,-1 -15,1 -22,4 -2,2 -4,4 -5,6 -1,2 -2,5 -1,8l0 121 -73 0 0 -125c0,-10 1,-20 5,-30 3,-8 9,-15 16,-20 9,-6 18,-9 28,-11 14,-3 29,-4 43,-3l44 0 0 49 -34 0z"/>
   <path class="fil3" d="M5769 6638l74 0 0 189 -74 0 0 -189zm2 -91l68 0 0 60 -68 0 0 -60z"/>
   <path class="fil3" d="M5878 6638l35 0 0 -67 73 0 0 67 64 0 0 49 -64 0 0 69c0,3 0,5 1,8 1,2 3,5 5,6 7,3 14,5 22,4l27 0 0 52 -36 0c-15,0 -29,-1 -43,-3 -10,-2 -20,-5 -29,-11 -7,-5 -13,-12 -16,-20 -3,-10 -5,-20 -5,-30l0 -76 -35 0 0 -49z"/>
   <path class="fil3" d="M6086 6638l73 0 0 189 -73 0 0 -189zm2 -91l68 0 0 60 -68 0 0 -60z"/>
   <path class="fil3" d="M6320 6832c-20,0 -40,-1 -60,-6 -13,-3 -26,-9 -36,-18 -9,-8 -15,-19 -18,-31 -6,-30 -6,-61 0,-90 3,-12 9,-23 18,-31 10,-9 23,-15 36,-18 40,-8 80,-8 120,0 13,3 26,9 36,18 9,8 15,19 18,31 6,30 6,61 0,90 -3,12 -9,23 -18,31 -10,9 -23,15 -36,17 -20,4 -40,6 -60,6l0 0zm0 -145c-9,0 -18,1 -27,2 -6,1 -11,4 -16,8 -4,4 -6,9 -7,14 -3,14 -3,28 0,42 1,5 4,10 7,14 4,4 10,7 16,8 9,2 18,3 27,2 9,0 18,-1 27,-2 6,-1 11,-4 16,-8 4,-4 6,-9 7,-14 2,-14 2,-28 0,-42 -1,-5 -4,-10 -7,-14 -4,-4 -10,-7 -16,-8 -9,-2 -18,-3 -27,-3l0 0z"/>
   <path class="fil3" d="M6481 6638l136 0c17,0 34,1 51,4 12,2 24,7 34,14 8,6 15,14 18,24 4,11 6,23 5,34l0 113 -74 0 0 -104c0,-4 0,-7 -1,-11 -1,-3 -3,-7 -6,-9 -5,-4 -14,-6 -28,-6l-63 0 0 130 -73 0 0 -189z"/>
   <path class="fil4" d="M2155 7243l-26 0 26 -151 26 0 -26 151zm149 0l-25 0 -47 -108 -19 108 -26 0 26 -151 25 0 47 109 19 -109 26 0 -26 151zm31 0l26 -151 41 0c13,0 23,3 33,9 9,6 16,15 20,26 4,11 5,23 4,36l-1 8c-2,14 -7,26 -14,37 -7,11 -16,19 -27,25 -11,6 -24,9 -37,9l-44 0zm48 -130l-19 109 15 0c14,0 25,-4 34,-13 9,-9 15,-21 17,-36 2,-11 2,-20 2,-28 -1,-10 -4,-18 -9,-24 -5,-6 -12,-9 -22,-9l-19 0zm115 130l-26 0 26 -151 26 0 -26 151zm123 -35l-57 0 -18 35 -28 0 82 -151 23 0 29 151 -26 0 -6 -35zm-46 -21l42 0 -10 -63 -32 63zm106 -50l-12 -8c7,-10 12,-19 14,-28l3 -17 22 0 -2 14c-3,16 -11,29 -24,39zm107 67c2,-10 -4,-17 -16,-22l-8 -3c-16,-5 -27,-12 -33,-19 -7,-7 -10,-16 -9,-26 1,-9 3,-16 9,-23 5,-7 12,-12 21,-15 9,-4 18,-5 28,-5 9,0 18,2 25,6 7,4 13,9 17,16 4,7 6,15 5,24l-26 0c0,-8 -1,-14 -5,-18 -4,-4 -10,-7 -18,-7 -8,0 -15,2 -20,6 -6,4 -9,9 -10,16 -1,9 5,16 18,21l8 3c16,6 27,12 33,20 6,8 9,17 8,27 -1,9 -3,16 -8,22 -5,6 -12,11 -20,15 -9,3 -18,5 -29,5 -10,0 -19,-2 -27,-6 -8,-4 -14,-10 -19,-17 -4,-7 -6,-15 -6,-25l26 0c-1,9 2,15 6,20 5,5 12,7 21,7 8,0 15,-2 21,-5 6,-4 9,-9 10,-16zm159 -3l-22 0 -15 43 -18 0 15 -43 -23 0 3 -16 26 0 12 -33 -24 0 3 -16 27 0 15 -43 18 0 -15 43 22 0 15 -43 18 0 -15 43 21 0 -3 16 -24 0 -11 33 22 0 -3 16 -25 0 -15 43 -18 0 15 -43zm-16 -16l22 0 12 -33 -22 0 -12 33zm141 59l-24 0 21 -121 -38 13 4 -22 60 -21 4 0 -26 152zm192 -40c2,-10 -4,-17 -16,-22l-8 -3c-16,-5 -27,-12 -33,-19 -7,-7 -10,-16 -9,-26 1,-9 3,-16 9,-23 5,-7 12,-12 21,-15 9,-4 18,-5 28,-5 9,0 18,2 25,6 7,4 13,9 17,16 4,7 6,15 5,24l-26 0c1,-8 -1,-14 -5,-18 -4,-4 -10,-7 -18,-7 -8,0 -15,2 -20,6 -6,4 -9,9 -10,16 -1,9 5,16 18,21l8 3c16,6 27,12 33,20 6,8 9,17 8,27 -1,9 -3,16 -8,22 -5,6 -12,11 -20,15 -9,3 -18,5 -29,5 -10,0 -19,-2 -27,-6 -8,-4 -14,-10 -19,-17 -4,-7 -6,-15 -6,-25l26 0c-1,9 2,15 6,20 5,5 12,7 21,7 8,0 15,-2 21,-5 6,-4 9,-9 10,-16zm77 -16l-10 56 -26 0 26 -151 52 0c16,0 28,4 37,13 9,9 13,20 12,34 -1,15 -7,26 -18,35 -11,9 -25,13 -42,13l-32 0zm4 -21l29 0c9,0 17,-2 23,-7 6,-5 9,-11 11,-20 1,-8 0,-14 -4,-19 -4,-5 -10,-7 -17,-8l-32 0 -9 53zm152 79c-10,0 -18,-3 -26,-7 -7,-5 -13,-11 -17,-20 -4,-9 -7,-18 -7,-29 0,-9 0,-19 2,-30 2,-12 6,-22 11,-32 5,-10 11,-17 19,-23 12,-10 26,-15 42,-14 15,0 27,5 36,15 9,10 14,24 15,41 0,9 0,18 -2,30 -2,11 -5,21 -10,31 -5,9 -11,17 -18,23 -12,11 -27,16 -43,16zm47 -82l1 -11c0,-8 0,-15 -2,-21 -2,-6 -5,-11 -9,-15 -4,-3 -9,-5 -16,-5 -9,0 -16,2 -23,7 -7,5 -12,13 -16,24 -4,11 -7,24 -7,40 -1,13 1,23 6,30 5,7 11,11 21,11 12,0 22,-4 30,-14 8,-9 13,-23 15,-40l1 -7zm103 22l-29 0 -10 58 -26 0 26 -151 48 0c16,0 29,4 38,12 9,8 13,19 11,33 -1,10 -4,18 -10,25 -6,7 -14,13 -24,17l22 62 0 2 -27 0 -19 -58zm-25 -21l25 0c9,0 16,-2 22,-7 6,-5 10,-11 11,-19 1,-8 0,-14 -4,-18 -4,-4 -10,-6 -17,-7l-27 0 -9 51zm214 -51l-46 0 -23 130 -26 0 23 -130 -45 0 4 -21 117 0 -4 21zm80 90c2,-10 -4,-17 -16,-22l-8 -3c-16,-5 -27,-12 -33,-19 -7,-7 -10,-16 -9,-26 1,-9 3,-16 9,-23 5,-7 12,-12 21,-15 9,-4 18,-5 28,-5 9,0 18,2 25,6 7,4 13,9 17,16 4,7 6,15 5,24l-26 0c0,-8 -1,-14 -5,-18 -4,-4 -10,-7 -18,-7 -8,0 -15,2 -20,6 -6,4 -9,9 -10,16 -1,9 5,16 18,21l8 3c16,6 27,12 33,20 6,8 9,17 8,27 -1,9 -3,16 -8,22 -5,6 -12,11 -20,15 -9,3 -18,5 -29,5 -10,0 -19,-2 -27,-6 -8,-4 -14,-10 -19,-17 -4,-7 -6,-15 -6,-25l26 0c-1,9 2,15 6,20 5,5 12,7 21,7 8,0 15,-2 21,-5 6,-4 9,-9 10,-16zm178 0c2,-10 -4,-17 -16,-22l-8 -3c-16,-5 -27,-12 -33,-19 -7,-7 -10,-16 -9,-26 1,-9 3,-16 9,-23 5,-7 12,-12 21,-15 9,-4 18,-5 28,-5 9,0 18,2 25,6 7,4 13,9 17,16 4,7 6,15 5,24l-26 0c1,-8 -1,-14 -5,-18 -4,-4 -10,-7 -18,-7 -8,0 -15,2 -20,6 -6,4 -9,9 -10,16 -1,9 5,16 18,21l8 3c16,6 27,12 33,20 6,8 9,17 8,27 -1,9 -3,16 -8,22 -5,6 -12,11 -20,15 -9,3 -18,5 -29,5 -10,0 -19,-2 -27,-6 -8,-4 -14,-10 -19,-17 -4,-7 -6,-15 -6,-25l26 0c-1,9 2,15 6,20 5,5 12,7 21,7 8,0 15,-2 21,-5 6,-4 9,-9 10,-16zm176 -112l-17 101c-2,16 -9,29 -21,39 -11,10 -25,14 -42,14 -15,0 -27,-5 -36,-14 -9,-9 -13,-20 -12,-35l0 -4 17 -101 26 0 -17 101c-1,10 0,17 4,23 4,5 10,8 19,9 9,0 17,-2 23,-8 6,-5 10,-13 12,-23l17 -102 26 0zm37 95l-10 56 -26 0 26 -151 52 0c16,0 28,4 37,13 9,9 13,20 12,34 -1,15 -7,26 -18,35 -11,9 -25,13 -42,13l-32 0zm4 -21l29 0c9,0 17,-2 23,-7 6,-5 9,-11 11,-20 1,-8 0,-14 -4,-19 -4,-5 -10,-7 -17,-8l-32 0 -9 53zm129 21l-10 56 -26 0 26 -151 52 0c16,0 28,4 37,13 9,9 13,20 12,34 -1,15 -7,26 -18,35 -11,9 -25,13 -42,13l-32 0zm4 -21l29 0c9,0 17,-2 23,-7 6,-5 9,-11 11,-20 1,-8 0,-14 -4,-19 -4,-5 -10,-7 -17,-8l-32 0 -9 53zm123 56l67 0 -4 21 -92 0 26 -151 26 0 -23 130zm181 -46l-60 0 -8 46 70 0 -4 21 -96 0 26 -151 95 0 -4 21 -70 0 -7 42 60 0 -4 21zm79 -84l22 116 62 -116 34 0 -26 151 -26 0 9 -51 13 -63 -62 114 -19 0 -23 -118 -9 69 -8 48 -26 0 26 -151 33 0zm220 84l-60 0 -8 46 70 0 -4 21 -96 0 26 -151 95 0 -4 21 -70 0 -7 42 60 0 -4 21zm137 67l-25 0 -47 -108 -19 108 -26 0 26 -151 25 0 47 109 19 -109 26 0 -26 151zm157 -130l-46 0 -23 130 -26 0 23 -130 -45 0 4 -21 117 0 -4 21zm80 90c2,-10 -4,-17 -16,-22l-8 -3c-16,-5 -27,-12 -33,-19 -7,-7 -10,-16 -9,-26 1,-9 3,-16 9,-23 5,-7 12,-12 21,-15 9,-4 18,-5 28,-5 9,0 18,2 25,6 7,4 13,9 17,16 4,7 6,15 5,24l-26 0c0,-8 -1,-14 -5,-18 -4,-4 -10,-7 -18,-7 -8,0 -15,2 -20,6 -6,4 -9,9 -10,16 -1,9 5,16 18,21l8 3c16,6 27,12 33,20 6,8 9,17 8,27 -1,9 -3,16 -8,22 -5,6 -12,11 -20,15 -9,3 -18,5 -29,5 -10,0 -19,-2 -27,-6 -8,-4 -14,-10 -19,-17 -4,-7 -6,-15 -6,-25l26 0c-1,9 2,15 6,20 5,5 12,7 21,7 8,0 15,-2 21,-5 6,-4 9,-9 10,-16zm178 0c2,-10 -4,-17 -16,-22l-8 -3c-16,-5 -27,-12 -33,-19 -7,-7 -10,-16 -9,-26 1,-9 3,-16 9,-23 5,-7 12,-12 21,-15 9,-4 18,-5 28,-5 9,0 18,2 25,6 7,4 13,9 17,16 4,7 6,15 5,24l-26 0c0,-8 -1,-14 -5,-18 -4,-4 -10,-7 -18,-7 -8,0 -15,2 -20,6 -6,4 -9,9 -10,16 -1,9 5,16 18,21l8 3c16,6 27,12 33,20 6,8 9,17 8,27 -1,9 -3,16 -8,22 -5,6 -12,11 -20,15 -9,3 -18,5 -29,5 -10,0 -19,-2 -27,-6 -8,-4 -14,-10 -19,-17 -4,-7 -6,-15 -6,-25l26 0c-1,9 2,15 6,20 5,5 12,7 21,7 8,0 15,-2 21,-5 6,-4 9,-9 10,-16zm171 -90l-46 0 -23 130 -26 0 23 -130 -45 0 4 -21 117 0 -4 21zm53 132c-10,0 -18,-3 -26,-7 -7,-5 -13,-11 -17,-20 -4,-9 -7,-18 -7,-29 0,-9 0,-19 2,-30 2,-12 6,-22 11,-32 5,-10 11,-17 19,-23 12,-10 26,-15 42,-14 15,0 27,5 36,15 9,10 14,24 15,41 0,9 0,18 -2,30 -2,11 -5,21 -10,31 -5,9 -11,17 -18,23 -12,11 -27,16 -43,16zm47 -82l1 -11c0,-8 0,-15 -2,-21 -2,-6 -5,-11 -9,-15 -4,-3 -9,-5 -16,-5 -9,0 -16,2 -23,7 -7,5 -12,13 -16,24 -4,11 -7,24 -7,40 -1,13 1,23 6,30 5,7 11,11 21,11 12,0 22,-4 30,-14 8,-9 13,-23 15,-40l1 -7zm103 22l-29 0 -10 58 -26 0 26 -151 48 0c16,0 29,4 38,12 9,8 13,19 11,33 -1,10 -4,18 -10,25 -6,7 -14,13 -24,17l22 62 0 2 -27 0 -19 -58zm-25 -21l25 0c9,0 16,-2 22,-7 6,-5 9,-11 11,-19 1,-8 0,-14 -4,-18 -4,-4 -10,-6 -17,-7l-27 0 -9 51zm188 12l-60 0 -8 46 70 0 -4 21 -96 0 26 -151 95 0 -4 21 -70 0 -7 42 60 0 -4 21z"/>
   <path class="fil4" d="M7296 3655l-29 0 0 58 -26 0 0 -151 53 0c17,0 31,4 40,12 10,8 14,19 14,34 0,10 -2,19 -7,25 -5,7 -12,12 -20,16l34 63 0 1 -28 0 -30 -58zm-29 -21l27 0c9,0 16,-2 21,-7 5,-4 7,-11 7,-18 0,-8 -2,-14 -7,-19 -5,-4 -11,-7 -21,-7l-28 0 0 51z"/>
   <path class="fil4" d="M7297 3480c43,0 83,18 111,46 28,28 46,68 46,111 0,43 -18,83 -46,111 -28,28 -68,46 -111,46 -43,0 -83,-18 -111,-46 -28,-28 -46,-68 -46,-111 0,-43 18,-83 46,-111 28,-28 68,-46 111,-46zm93 64c-24,-24 -57,-39 -93,-39 -36,0 -69,15 -93,39 -24,24 -39,57 -39,93 0,36 15,69 39,93 24,24 57,39 93,39 36,0 69,-15 93,-39 24,-24 39,-57 39,-93 0,-36 -15,-69 -39,-93z"/>
  </g>
 </g>
</svg>
